<svg width="71" height="71" viewBox="0 0 71 71" fill="none" xmlns="http://www.w3.org/2000/svg">
<path d="M57.3044 35.0029C57.3418 39.3611 56.0811 43.6318 53.6831 47.2712C51.2852 50.9105 47.8583 53.7538 43.8389 55.4389C39.8195 57.124 35.3897 57.5747 31.1133 56.7336C26.8369 55.8925 22.9077 53.7978 19.8259 50.7159C16.7441 47.6341 14.649 43.7048 13.8079 39.4284C12.9668 35.152 13.4178 30.722 15.1029 26.7026C16.788 22.6833 19.6311 19.2563 23.2704 16.8584C26.9097 14.4604 31.1807 13.1998 35.5388 13.2373C41.3114 13.2373 46.8476 15.5304 50.9294 19.6123C55.0113 23.6941 57.3044 29.2303 57.3044 35.0029Z" fill="#5DC948"/>
<path fill-rule="evenodd" clip-rule="evenodd" d="M30.5268 31.4227C30.662 31.277 30.8495 31.191 31.0481 31.1835C31.2467 31.1761 31.4402 31.2477 31.586 31.3828L34.9249 34.4793L38.0214 31.1404C38.0873 31.0641 38.1678 31.002 38.2582 30.9575C38.3486 30.9131 38.447 30.8874 38.5476 30.8818C38.6481 30.8762 38.7488 30.891 38.8435 30.9252C38.9383 30.9593 39.0251 31.0122 39.099 31.0807C39.1729 31.1492 39.2321 31.2319 39.2733 31.3238C39.3145 31.4157 39.3369 31.5149 39.3389 31.6156C39.3409 31.7163 39.3226 31.8164 39.2851 31.9099C39.2476 32.0034 39.1916 32.0883 39.1206 32.1597L36.0241 35.4986L39.363 38.5952C39.4392 38.661 39.5014 38.7416 39.5458 38.8319C39.5903 38.9223 39.616 39.0207 39.6216 39.1213C39.6272 39.2219 39.6123 39.3225 39.5782 39.4172C39.544 39.512 39.4912 39.5988 39.4226 39.6727C39.3541 39.7466 39.2715 39.8059 39.1796 39.847C39.0877 39.8882 38.9884 39.9106 38.8877 39.9126C38.787 39.9146 38.687 39.8963 38.5935 39.8588C38.5 39.8213 38.4151 39.7654 38.3436 39.6943L35.0047 36.5978L31.9082 39.9367C31.7711 40.0745 31.5859 40.1536 31.3916 40.1575C31.1973 40.1613 31.0091 40.0897 30.8666 39.9575C30.7241 39.8254 30.6385 39.6431 30.6278 39.4491C30.617 39.255 30.682 39.0644 30.809 38.9174L33.9056 35.5784L30.5667 32.4819C30.421 32.3467 30.335 32.1592 30.3275 31.9605C30.32 31.7619 30.3917 31.5685 30.5268 31.4227Z" fill="white"/>
</svg>
