<svg width="26" height="26" viewBox="0 0 26 26" fill="none" xmlns="http://www.w3.org/2000/svg">
<g clip-path="url(#clip0_1_25876)">
<path fill-rule="evenodd" clip-rule="evenodd" d="M13.8091 23.5625C18.412 23.5625 21.9327 20.3438 21.9327 16.25C21.9327 13.8278 20.7914 12.655 18.78 10.651C17.1254 9.00256 15.0732 6.93272 14.2172 3.48652C13.7489 3.85929 13.2915 4.32293 12.9238 4.86641C12.1323 6.0363 11.7659 7.52845 12.738 9.47259C13.5075 11.0115 13.8262 13.1834 12.2861 14.7235C11.3687 15.6409 9.79944 16.2865 8.09637 15.573C7.3314 15.2525 6.69832 14.7179 6.17131 14.0486C5.87684 14.6655 5.68752 15.4185 5.6875 16.25C5.6874 20.3609 9.20335 23.5625 13.8091 23.5625ZM16.2733 0.812133C16.2471 0.364169 15.8827 0.00347444 15.4488 0.117805C12.6718 0.849498 7.73907 4.92518 10.5579 10.5627C11.1173 11.6815 11.0202 12.5423 10.5625 13C9.8127 13.7498 8.37097 13.8076 7.19241 10.9262C7.01918 10.5027 6.54267 10.2647 6.14959 10.4989C4.35951 11.5656 3.25006 13.8701 3.25 16.25C3.24986 21.957 8.12156 26 13.8091 26C19.4966 26 24.3702 21.9375 24.3702 16.25C24.3702 12.777 22.5386 10.9535 20.6151 9.03852C18.6152 7.04747 16.5161 4.9576 16.2733 0.812133Z" fill="white"/>
</g>
<defs>
<clipPath id="clip0_1_25876">
<rect width="26" height="26" fill="white"/>
</clipPath>
</defs>
</svg>
