<svg width="55" height="65" viewBox="0 0 55 65" fill="none" xmlns="http://www.w3.org/2000/svg">
<g id="warranty">
<path id="Vector" d="M27.2933 8.09937C23.5555 8.09937 19.9016 9.20776 16.7937 11.2844C13.6858 13.361 11.2635 16.3126 9.83312 19.7659C8.40272 23.2192 8.02846 27.0191 8.75767 30.6851C9.48689 34.3511 11.2868 37.7185 13.9299 40.3615C16.5729 43.0046 19.9403 44.8045 23.6063 45.5337C27.2723 46.2629 31.0722 45.8887 34.5255 44.4583C37.9788 43.0279 40.9304 40.6056 43.007 37.4977C45.0836 34.3898 46.192 30.7359 46.192 26.9981C46.192 21.9859 44.2009 17.1789 40.6567 13.6347C37.1125 10.0905 32.3055 8.09937 27.2933 8.09937ZM27.2933 43.197C24.0894 43.197 20.9575 42.247 18.2936 40.467C15.6297 38.6871 13.5535 36.1571 12.3274 33.1972C11.1014 30.2372 10.7806 26.9801 11.4056 23.8379C12.0307 20.6956 13.5735 17.8092 15.8389 15.5437C18.1044 13.2783 20.9907 11.7355 24.133 11.1104C27.2753 10.4854 30.5324 10.8062 33.4923 12.0323C36.4523 13.2583 38.9822 15.3346 40.7622 17.9985C42.5422 20.6624 43.4922 23.7943 43.4922 26.9981C43.4922 31.2943 41.7855 35.4146 38.7477 38.4525C35.7098 41.4904 31.5895 43.197 27.2933 43.197Z" fill="#0566D1"/>
<path id="Vector_2" d="M52.631 23.313C52.2742 22.9904 52.0314 22.5609 51.9389 22.0889C51.8464 21.6168 51.9093 21.1275 52.118 20.6941C52.4146 20.0717 52.5768 19.3938 52.5942 18.7045C52.6116 18.0152 52.4837 17.33 52.2189 16.6934C51.954 16.0568 51.5582 15.483 51.0571 15.0094C50.556 14.5359 49.9608 14.173 49.3102 13.9446C48.8533 13.7908 48.46 13.4904 48.1915 13.0901C47.9229 12.6897 47.7942 12.2118 47.8253 11.7307C47.8652 11.0197 47.7513 10.3084 47.4913 9.64531C47.2314 8.98226 46.8316 8.38304 46.3191 7.8885C45.8066 7.39396 45.1935 7.01573 44.5217 6.77958C43.8498 6.54343 43.1349 6.45491 42.4257 6.52007C41.9673 6.52169 41.5199 6.3792 41.1469 6.11274C40.7738 5.84629 40.494 5.46934 40.3468 5.03517C40.1184 4.38462 39.7555 3.78943 39.282 3.28831C38.8084 2.78719 38.2346 2.39134 37.598 2.12651C36.9614 1.86168 36.2762 1.7338 35.5869 1.75117C34.8976 1.76855 34.2197 1.93079 33.5973 2.22735C31.0594 3.38827 30.9649 0 27.2932 0C26.597 0.00385162 25.9093 0.153603 25.2746 0.439592C24.6398 0.725581 24.0721 1.14146 23.6079 1.66039C23.2805 2.00998 22.8514 2.24766 22.3813 2.33972C21.9113 2.43179 21.4242 2.37359 20.9891 2.17336C20.367 1.8746 19.6888 1.71063 18.9989 1.69218C18.309 1.67374 17.623 1.80122 16.9858 2.0663C16.3486 2.33138 15.7745 2.72806 15.3013 3.23038C14.828 3.7327 14.4662 4.32932 14.2396 4.98117C14.0813 5.4379 13.7779 5.83028 13.3757 6.09841C12.9736 6.36653 12.4947 6.49566 12.0122 6.46607C11.3011 6.42621 10.5898 6.54013 9.92679 6.80006C9.26374 7.05999 8.66453 7.45982 8.16999 7.97229C7.67545 8.48477 7.29721 9.09784 7.06106 9.76973C6.82491 10.4416 6.7364 11.1565 6.80155 11.8657C6.80317 12.3241 6.66068 12.7715 6.39423 13.1445C6.12777 13.5176 5.75082 13.7974 5.31665 13.9446C4.6674 14.1748 4.07364 14.5386 3.5737 15.0125C3.07375 15.4864 2.67874 16.0599 2.41415 16.6959C2.14957 17.332 2.02129 18.0164 2.0376 18.7051C2.05391 19.3937 2.21444 20.0713 2.50884 20.6941C2.73602 21.1381 2.80761 21.6455 2.71216 22.135C2.6167 22.6245 2.35972 23.0678 1.98237 23.3939C1.46368 23.8562 1.04861 24.4229 0.764396 25.0568C0.480181 25.6908 0.333252 26.3777 0.333252 27.0725C0.333252 27.7672 0.480181 28.4541 0.764396 29.0881C1.04861 29.722 1.46368 30.2887 1.98237 30.751C2.3392 31.0735 2.582 31.503 2.67446 31.975C2.76693 32.4471 2.70409 32.9364 2.49534 33.3698C2.19659 33.9919 2.03262 34.6701 2.01417 35.36C1.99572 36.0499 2.12321 36.7359 2.38828 37.3731C2.65336 38.0103 3.05004 38.5843 3.55236 39.0576C4.05468 39.5308 4.6513 39.8927 5.30315 40.1193C5.75988 40.2776 6.15226 40.581 6.42039 40.9832C6.68851 41.3853 6.81764 41.8642 6.78805 42.3467C6.72224 43.461 7.03995 44.5644 7.68832 45.4731C8.3367 46.3818 9.27665 47.0411 10.3518 47.3414C3.99374 58.3701 3.98024 57.8842 4.6012 58.8156C5.22216 59.747 5.64063 59.4365 11.5802 58.7211C13.9021 64.2017 13.8616 64.7957 14.9685 64.7957C16.0754 64.7957 15.8459 64.7957 23.203 52.012C23.3539 52.1095 23.4942 52.2226 23.6214 52.3495C24.0837 52.8682 24.6503 53.2833 25.2843 53.5675C25.9183 53.8517 26.6052 53.9986 27.2999 53.9986C27.9947 53.9986 28.6816 53.8517 29.3156 53.5675C29.9495 53.2833 30.5162 52.8682 30.9784 52.3495C31.1019 52.2278 31.2376 52.1193 31.3834 52.0255C38.9294 65.1062 38.4839 64.8902 39.6179 64.8092C40.7518 64.7282 40.6843 64.2287 43.0331 58.7076C48.9322 59.4231 49.4047 59.7335 50.0122 58.8021C50.6196 57.8707 50.3092 57.8167 44.2616 47.3414C45.3579 47.0271 46.3118 46.3433 46.9614 45.4058C47.611 44.4684 47.9162 43.3351 47.8253 42.1982C47.8237 41.7398 47.9662 41.2924 48.2326 40.9194C48.4991 40.5464 48.876 40.2665 49.3102 40.1193C49.9595 39.8891 50.5532 39.5253 51.0532 39.0514C51.5531 38.5775 51.9481 38.004 52.2127 37.368C52.4773 36.7319 52.6056 36.0475 52.5893 35.3588C52.573 34.6702 52.4124 33.9926 52.118 33.3698C51.9136 32.9355 51.8531 32.4473 51.9454 31.9763C52.0377 31.5053 52.2778 31.076 52.631 30.751C53.1652 30.2897 53.5937 29.7187 53.8875 29.077C54.1812 28.4352 54.3333 27.7377 54.3333 27.032C54.3333 26.3262 54.1812 25.6287 53.8875 24.9869C53.5937 24.3452 53.1652 23.7742 52.631 23.313ZM15.225 60.4355C12.8491 54.8874 14.1181 55.6703 8.21896 56.3858C13.6996 46.9364 13.1056 47.7868 13.2676 47.8813C13.6951 48.1422 14.0194 48.5428 14.1856 49.0152C14.5871 50.1699 15.4036 51.134 16.4764 51.7203C17.5491 52.3065 18.8015 52.4731 19.9902 52.1875L15.225 60.4355ZM39.3614 60.4355L34.5962 52.1875C35.7831 52.4725 37.0335 52.3055 38.104 51.7191C39.1745 51.1327 39.9885 50.1688 40.3873 49.0152C40.5866 48.5079 40.9534 48.084 41.4267 47.8138L46.3674 56.3858C40.4143 55.6568 41.6967 54.9548 39.3614 60.4355ZM50.8491 28.6586C50.0488 29.3728 49.5026 30.3282 49.2932 31.3802C49.0837 32.4323 49.2224 33.5239 49.6882 34.4902C49.8256 34.771 49.9016 35.0779 49.9112 35.3904C49.9207 35.7029 49.8635 36.0138 49.7435 36.3025C49.6234 36.5912 49.4432 36.8509 49.2149 37.0645C48.9865 37.278 48.7153 37.4405 48.4193 37.541C47.3903 37.9056 46.5101 38.5991 45.9148 39.5141C45.3194 40.4291 45.042 41.5147 45.1255 42.6032C45.1247 42.9129 45.0598 43.2191 44.9347 43.5025C44.8096 43.7858 44.6272 44.0402 44.3989 44.2495C44.1705 44.4588 43.9013 44.6185 43.6081 44.7185C43.315 44.8185 43.0043 44.8566 42.6957 44.8305C41.6399 44.7877 40.5982 45.0845 39.7236 45.6773C38.8489 46.2702 38.1873 47.1278 37.836 48.1243C37.7319 48.4177 37.5674 48.686 37.3532 48.912C37.1389 49.1379 36.8797 49.3164 36.5923 49.436C36.3048 49.5555 35.9954 49.6135 35.6842 49.6061C35.3729 49.5988 35.0667 49.5262 34.7852 49.3932C33.8205 48.9357 32.7343 48.8002 31.6868 49.0068C30.6392 49.2134 29.6858 49.7511 28.9671 50.5406C28.7516 50.7656 28.4928 50.9447 28.2063 51.067C27.9198 51.1893 27.6115 51.2524 27.2999 51.2524C26.9884 51.2524 26.6801 51.1893 26.3936 51.067C26.1071 50.9447 25.8483 50.7656 25.6328 50.5406C24.9186 49.7403 23.9632 49.1941 22.9112 48.9847C21.8591 48.7753 20.7675 48.9139 19.8012 49.3797C19.519 49.515 19.2116 49.5894 18.8988 49.5979C18.586 49.6065 18.2749 49.549 17.9858 49.4293C17.6967 49.3096 17.436 49.1303 17.2208 48.9031C17.0057 48.6759 16.8408 48.406 16.7369 48.1108C16.3787 47.0803 15.6887 46.1978 14.775 45.6018C13.8613 45.0057 12.7757 44.7297 11.6882 44.817C11.3785 44.8163 11.0723 44.7513 10.7889 44.6262C10.5055 44.5012 10.2512 44.3187 10.0419 44.0904C9.83259 43.8621 9.6729 43.5928 9.5729 43.2997C9.47289 43.0065 9.43475 42.6958 9.46087 42.3872C9.50584 41.331 9.2099 40.2883 8.61678 39.4132C8.02366 38.5381 7.16481 37.877 6.16709 37.5275C5.86971 37.4289 5.59699 37.2675 5.36741 37.0543C5.13783 36.841 4.95674 36.581 4.83642 36.2917C4.71609 36.0024 4.65933 35.6906 4.66999 35.3775C4.68065 35.0643 4.75846 34.7572 4.89818 34.4767C5.36008 33.5129 5.49793 32.4256 5.29113 31.377C5.08434 30.3284 4.54399 29.3749 3.75075 28.6586C3.51487 28.4496 3.32602 28.1929 3.19669 27.9055C3.06735 27.6182 3.00048 27.3066 3.00048 26.9915C3.00048 26.6763 3.06735 26.3647 3.19669 26.0774C3.32602 25.79 3.51487 25.5333 3.75075 25.3243C4.54737 24.6075 5.09084 23.6524 5.30006 22.6014C5.50929 21.5504 5.37305 20.4599 4.91168 19.4927C4.77196 19.2123 4.69414 18.9051 4.68349 18.5919C4.67283 18.2788 4.72959 17.967 4.84992 17.6777C4.97024 17.3884 5.15133 17.1284 5.38091 16.9152C5.61049 16.7019 5.88321 16.5405 6.18059 16.4419C7.20954 16.0773 8.08972 15.3838 8.68509 14.4688C9.28045 13.5538 9.55784 12.4682 9.47437 11.3797C9.47309 11.0694 9.53667 10.7622 9.66105 10.4779C9.78543 10.1935 9.96785 9.93833 10.1966 9.72862C10.4254 9.51891 10.6955 9.35932 10.9895 9.26009C11.2836 9.16086 11.5951 9.12418 11.9042 9.15239C12.9604 9.19735 14.0031 8.90142 14.8782 8.3083C15.7533 7.71518 16.4144 6.85633 16.7639 5.85861C16.868 5.56519 17.0325 5.29686 17.2467 5.07094C17.4609 4.84501 17.7201 4.6665 18.0076 4.54694C18.2951 4.42737 18.6044 4.3694 18.9157 4.37676C19.2269 4.38413 19.5332 4.45667 19.8147 4.5897C20.7785 5.0516 21.8658 5.18944 22.9144 4.98265C23.963 4.77585 24.9165 4.23551 25.6328 3.44227C25.8483 3.21727 26.1071 3.03822 26.3936 2.9159C26.6801 2.79358 26.9884 2.73052 27.2999 2.73052C27.6115 2.73052 27.9198 2.79358 28.2063 2.9159C28.4928 3.03822 28.7516 3.21727 28.9671 3.44227C29.6839 4.23888 30.639 4.78236 31.69 4.99158C32.741 5.20081 33.8315 5.06457 34.7987 4.60319C35.0798 4.46799 35.3864 4.39373 35.6983 4.38529C36.0101 4.37686 36.3203 4.43444 36.6083 4.55425C36.8964 4.67406 37.1559 4.8534 37.3698 5.08052C37.5837 5.30763 37.7471 5.57739 37.8495 5.87211C38.2141 6.90106 38.9075 7.78124 39.8225 8.37661C40.7376 8.97197 41.8232 9.24936 42.9116 9.16589C43.2214 9.16665 43.5276 9.23162 43.811 9.35669C44.0943 9.48176 44.3487 9.66421 44.558 9.89254C44.7673 10.1209 44.927 10.3901 45.027 10.6832C45.127 10.9764 45.1651 11.2871 45.139 11.5957C45.094 12.6519 45.39 13.6946 45.9831 14.5697C46.5762 15.4448 47.4351 16.1059 48.4328 16.4554C48.7302 16.554 49.0029 16.7154 49.2325 16.9287C49.462 17.1419 49.6431 17.4019 49.7635 17.6912C49.8838 17.9805 49.9405 18.2923 49.9299 18.6054C49.9192 18.9186 49.8414 19.2258 49.7017 19.5062C49.2398 20.47 49.1019 21.5573 49.3087 22.6059C49.5155 23.6545 50.0559 24.6081 50.8491 25.3243C51.085 25.5333 51.2738 25.79 51.4032 26.0774C51.5325 26.3647 51.5994 26.6763 51.5994 26.9915C51.5994 27.3066 51.5325 27.6182 51.4032 27.9055C51.2738 28.1929 51.085 28.4496 50.8491 28.6586Z" fill="#0566D1"/>
<path id="Vector_3" d="M31.5318 21.7337C28.319 15.2406 28.4135 14.8491 27.2931 14.8491C26.1727 14.8491 26.2672 15.2271 23.0544 21.7337C15.8998 22.7731 15.5624 22.5571 15.2114 23.6235C14.8604 24.69 15.2114 24.7305 20.449 29.7791C19.2206 36.9067 18.9236 37.1766 19.8281 37.8786C20.7325 38.5805 20.881 38.1756 27.2931 34.8008C33.8131 38.2296 33.5027 38.1351 33.9616 38.1351C34.16 38.138 34.3565 38.0971 34.5373 38.0154C34.7181 37.9337 34.8786 37.8132 35.0075 37.6624C35.1364 37.5116 35.2304 37.3342 35.283 37.1429C35.3355 36.9517 35.3453 36.7512 35.3116 36.5557L34.1506 29.8061L39.0508 25.0409C39.233 24.8648 39.362 24.641 39.423 24.395C39.484 24.1491 39.4745 23.8909 39.3957 23.6501C39.3168 23.4092 39.1717 23.1954 38.977 23.0332C38.7824 22.8709 38.546 22.7668 38.2949 22.7326L31.5318 21.7337ZM31.7478 28.3482C31.0728 29.0097 31.3293 29.3067 32.1798 34.2743C27.4686 31.804 27.7386 31.885 27.2931 31.885C26.8476 31.885 27.1176 31.804 22.4064 34.2743C23.2704 29.2797 23.5133 28.9962 22.8384 28.3482L19.3961 24.9869L24.1478 24.2985C25.0927 24.1635 25.0657 23.772 27.2931 19.2498C29.5474 23.8125 29.5069 24.1635 30.4384 24.2985L35.1901 24.9869L31.7478 28.3482Z" fill="#0566D1"/>
</g>
</svg>
